<svg width="99" height="36" viewBox="0 0 99 36" fill="none" xmlns="http://www.w3.org/2000/svg">
<path fill-rule="evenodd" clip-rule="evenodd" d="M6.15771 13.5303L6.15525 14.4074H9.8735C10.6198 14.4074 11.225 15.0166 11.225 15.7677V18.2893C11.225 19.0404 10.6198 19.6496 9.8735 19.6496H6.15525V27.9975C6.15525 28.749 5.54996 29.3579 4.80371 29.3579H1.35155C0.604945 29.3579 0 28.749 0 27.9975V13.4542H0.00246055C0.0369083 6.5548 4.65677 0.853323 10.605 0.013049C11.4106 -0.100874 12.1263 0.546225 12.1263 1.36527V5.08547C12.1263 5.73151 11.6718 6.2753 11.0454 6.4147C8.26852 7.03314 6.15771 9.98842 6.15771 13.5303ZM86.4029 17.7585H86.4V28.0012C86.4 28.7577 87.0303 29.3714 87.8078 29.3714H91.3727C92.1615 29.3714 92.7963 28.7403 92.7802 27.9727L92.5635 17.7585H92.5627C92.6132 14.5119 94.6752 11.8126 97.3905 11.215C98.0464 11.0707 98.5263 10.5269 98.5263 9.87229V6.5697C98.5263 5.73871 97.7712 5.09052 96.9263 5.20811C91.0305 6.03091 86.4597 11.3365 86.4029 17.7585ZM77.5719 15.4026C77.3782 13.344 75.4894 11.333 72.9226 11.333C70.3073 11.333 68.1766 13.296 67.8857 15.4026H77.5719ZM82.6903 25.1987C83.2519 25.7536 83.2282 26.6627 82.6375 27.1866C80.3547 29.2111 77.149 30.3158 74.0159 30.3158C66.9932 30.3158 61.7143 25.5282 61.7143 18.2516C61.7143 11.7878 66.1698 6.13871 73.144 6.13871C79.6338 6.13871 84.2346 11.5486 84.2346 18.0117C84.2346 18.1684 84.2314 18.3255 84.2252 18.4808C84.1965 19.2105 83.5816 19.7831 82.8431 19.7831H67.8165C68.1556 23.0385 70.8195 25.289 74.1611 25.289C76.2339 25.289 77.9838 24.3901 79.1833 23.4277C79.7255 22.9926 80.5169 23.0498 81.0105 23.5382L82.6903 25.1987ZM55.19 6.94843L49.1548 20.3674L43.12 6.94843C42.8982 6.45596 42.4077 6.13871 41.867 6.13871H38.4036C37.402 6.13871 36.7373 7.17539 37.1559 8.08431L46.6219 28.6533C46.8463 29.1401 47.3335 29.4523 47.87 29.4523H50.4396C50.9761 29.4523 51.4637 29.1401 51.6877 28.6533L61.1541 8.08431C61.5723 7.17539 60.9076 6.13871 59.906 6.13871H56.4427C55.9019 6.13871 55.4114 6.45596 55.19 6.94843ZM30.5741 15.4026C30.3803 13.344 28.4916 11.333 25.9248 11.333C23.3095 11.333 21.1784 13.296 20.8879 15.4026H30.5741ZM35.3578 24.8678C36.1244 25.6256 36.0546 26.8731 35.2115 27.547C32.9661 29.3419 29.9603 30.3158 27.0177 30.3158C19.9954 30.3158 14.7165 25.5282 14.7165 18.2516C14.7165 11.7878 19.172 6.13871 26.1462 6.13871C32.6357 6.13871 37.2368 11.5486 37.2368 18.0117C37.2368 18.1684 37.2336 18.3255 37.2274 18.4812C37.1987 19.2105 36.5839 19.7831 35.8453 19.7831H20.8187C21.1578 23.0385 23.8213 25.289 27.1633 25.289C29.0657 25.289 30.6966 24.5316 31.8792 23.6626C32.617 23.1209 33.6363 23.1661 34.2863 23.8087L35.3578 24.8678Z" fill="white"/>
</svg>
